<?xml version="1.0" standalone="no"?><!DOCTYPE svg PUBLIC "-//W3C//DTD SVG 1.1//EN" "http://www.w3.org/Graphics/SVG/1.1/DTD/svg11.dtd"><svg t="1485002215335" class="icon" style="" viewBox="0 0 1024 1024" version="1.1" xmlns="http://www.w3.org/2000/svg" p-id="2139" xmlns:xlink="http://www.w3.org/1999/xlink" width="32" height="32"><defs><style type="text/css"></style></defs><path d="M972.288 512.32c0 125.056-1.472 250.176 0.576 375.296 1.088 67.904-25.984 97.6-95.744 96.384-142.272-2.624-284.416-0.384-426.816-0.896-84.928-0.512-96.448-12.608-97.28-99.904-0.512-61.376-0.064-122.752 0.192-184 0-20.224 0.896-40.128 29.824-39.744 29.184 0.384 28.992 20.608 29.184 40.64 0.32 54.016 1.408 108.032 0.064 161.856-1.088 43.52 17.28 62.272 61.312 61.76 125.056-1.28 250.176-1.28 375.232-0.128 47.744 0.64 64.384-19.968 64.064-66.88-1.536-227.968-1.728-456.256-0.448-684.416 0.32-53.952-20.672-74.304-74.496-73.088-117.696 2.432-235.456 2.624-353.28 0.192C429.952 98.24 409.408 120.64 412.16 173.76c2.432 48.96 0.768 98.112 0.192 147.136-0.192 19.264 2.432 40.96-26.88 42.816C357.76 365.568 353.088 348.416 353.088 326.528 353.28 252.864 351.744 179.2 353.856 105.664c1.408-45.44 34.304-63.936 74.304-64.256 156.992-1.6 313.984-2.176 470.976-0.192 48.512 0.64 73.728 29.312 73.216 80.96-1.216 129.984-0.448 260.032-0.448 390.144C972.096 512.32 972.16 512.32 972.288 512.32z" p-id="2140" fill="#2c2c2c"></path><path d="M150.272 563.968C177.28 587.84 205.696 610.368 230.4 636.224c10.944 11.392 19.968 30.72 5.696 46.4-15.104 16.384-33.536 7.616-45.568-4.48C147.2 635.264 105.472 590.592 63.424 546.432 52.48 535.04 49.344 521.216 51.968 505.664c3.584-20.736 136.896-165.376 158.08-168.768 8.256-1.408 21.312 0.192 25.856 5.76C248.96 358.272 242.368 378.304 231.04 389.248 205.568 413.44 176.192 433.664 148.416 455.552c5.056 8.704 9.92 17.472 14.848 26.24 113.728 0 227.456 0 341.248 0 39.168 0 78.336-0.448 117.568 0.32 21.76 0.448 49.152-1.216 47.488 30.72-1.472 30.464-28.736 28.48-50.368 28.608C489.408 541.824 359.744 541.504 229.952 541.952c-23.616 0-47.168 2.176-70.784 3.392C156.16 551.552 153.28 557.76 150.272 563.968z" p-id="2141" fill="#2c2c2c"></path></svg>