<?xml version="1.0" standalone="no"?><!DOCTYPE svg PUBLIC "-//W3C//DTD SVG 1.1//EN" "http://www.w3.org/Graphics/SVG/1.1/DTD/svg11.dtd"><svg t="1484849156813" class="icon" style="" viewBox="0 0 1024 1024" version="1.1" xmlns="http://www.w3.org/2000/svg" p-id="995" xmlns:xlink="http://www.w3.org/1999/xlink" width="32" height="32"><defs><style type="text/css"></style></defs><path d="M716.705025 213.684102c-138.88833-138.93441-364.124273-138.93441-503.058683 0s-138.93441 364.170353 0 503.058683c138.91393 138.92417 364.139633 138.92417 503.058683 0.01536v-0.01536c138.92417-138.90369 138.92417-364.129393 0.01536-503.043323 0-0.00512-0.01536-0.00512-0.01536-0.01536zM136.238127 794.151c-181.639742-181.690942-181.639742-476.225132 0-657.921193 181.680702-181.639742 476.199532-181.639742 657.921193 0 181.649982 181.696062 181.649982 476.230252 0 657.921193-181.721661 181.639742-476.235372 181.639742-657.921193 0z m869.113169 211.238056c-24.836778 24.800939-65.069185 24.800939-89.885484 0l-89.839404-89.885484c-24.806059-24.821419-24.806059-65.038466 0-89.844525 24.800939-24.800939 65.017986-24.800939 89.839404 0l89.885484 89.844525c24.862378 24.862378 24.862378 65.069185 0 89.885484z" fill="#666666" p-id="996"></path></svg>